PathFileType	4	(X/Y/Z)	\\Move.snu.ac.kr\motion\Animal\091204_091205_Bird\091205_bird\Project 2\Capture day 2\Session 1\pigeon_008.trc
DataRate	CameraRate	NumFrames	NumMarkers	Units	OrigDataRate	OrigDataStartFrame	OrigNumFrames
240.0	240.0	27	14	mm	240.0	162	3164
Frame#	Time	14MarkersBird:Head			14MarkersBird:C_back			14MarkersBird:Spine			14MarkersBird:L-shoulder			14MarkersBird:L-elbow			14MarkersBird:L-wrist			14MarkersBird:L-hand			14MarkersBird:R-shoulder			14MarkersBird:R-elbow			14MarkersBird:R-Wrist			14MarkersBird:R-hand			14MarkersBird:C_Tail			14MarkersBird:L-Tale			14MarkersBird:R-Tale			
		X1	Y1	Z1	X2	Y2	Z2	X3	Y3	Z3	X4	Y4	Z4	X5	Y5	Z5	X6	Y6	Z6	X7	Y7	Z7	X8	Y8	Z8	X9	Y9	Z9	X10	Y10	Z10	X11	Y11	Z11	X12	Y12	Z12	X13	Y13	Z13	X14	Y14	Z14	

2206	9.188	102.37340	401.51855	1989.09277	42.25816	396.21310	1976.67468	-6.86664	376.94119	1968.73975	74.70070	392.55688	1958.22607	35.70734	415.10312	1962.09570	53.87581	448.15042	1944.38770	31.11864	461.51309	1935.81726	67.66235	398.43161	1996.94165	39.75801	417.98349	1973.95593	54.12886	452.20813	1996.38892	26.93564	475.86853	2006.99841	-93.51817	285.52893	1953.57629	-16.12294	326.65503	1876.55542	-56.85358	345.39325	2064.79883	
2207	9.192	111.78136	399.67877	1990.27527	51.25734	394.45206	1977.75586	2.70121	375.14145	1970.31946	83.82383	390.29590	1959.08057	48.37334	414.57745	1962.76965	64.05840	447.91830	1943.78906	42.75900	466.01135	1942.22131	77.21257	396.09665	1998.40735	51.57579	417.21515	1976.46497	63.88488	453.20071	1998.69409	37.12186	482.43118	2000.25244	-85.09640	283.71985	1954.07141	-5.06226	327.20981	1877.22498	-46.65759	346.74936	2067.96802	
2208	9.196	121.13379	397.70602	1991.31018	60.34108	392.63055	1978.61035	12.12962	373.68039	1971.87280	93.11410	388.23108	1959.77466	60.78444	413.86884	1961.96484	74.82018	445.18268	1939.49976	56.76647	466.59363	1940.92346	86.68738	393.65527	2000.26392	62.53308	416.25226	1981.02332	73.03615	452.16043	2005.77185	48.95135	485.28293	2003.30811	-76.57780	282.31955	1954.28455	5.04974	326.42209	1878.57263	-36.80758	346.18610	2070.39355	
2209	9.200	130.48996	395.72577	1992.21899	69.59460	390.70557	1979.22314	21.45117	372.52039	1973.40112	102.50753	386.30289	1960.43604	72.14217	412.44846	1960.27148	85.94241	439.61353	1932.34656	71.62036	463.45959	1931.56030	96.28825	391.28906	2002.30945	72.63912	415.00043	1987.40369	81.67145	448.49347	2016.45996	60.77728	484.08337	2015.89856	-67.80608	281.19302	1954.70996	14.53224	324.31256	1880.48120	-27.43500	343.63123	2072.10376	
2210	9.204	139.91370	393.86099	1993.01672	79.09796	388.63693	1979.58020	30.70296	371.61960	1974.90649	112.00755	384.41339	1961.13660	82.50434	409.68506	1957.69507	97.62277	431.10638	1923.70276	86.89207	455.86841	1916.66309	106.24973	388.98969	2004.36487	82.23817	413.13605	1995.14539	90.63564	441.98392	2028.94360	72.63916	478.03836	2034.90198	-58.71059	280.11484	1955.86548	23.84595	321.09390	1882.77771	-18.39869	339.76538	2073.17236	
2211	9.208	149.46150	392.21570	1993.70776	88.88849	386.44937	1979.71252	39.92211	370.93588	1976.39026	121.72984	382.50919	1961.82715	92.73732	404.98267	1953.79749	110.30014	419.79510	1915.30005	103.28889	442.99307	1900.46228	116.62429	386.73438	2006.49231	91.98366	410.16299	2003.54541	101.03711	432.86017	2041.43933	86.14038	466.86813	2056.22534	-49.30826	278.88895	1958.14673	33.28843	317.25974	1885.23840	-9.30618	335.59457	2073.82324	
2212	9.212	159.16461	390.83820	1994.31897	98.91717	384.29883	1979.73755	49.14571	370.42746	1977.85400	131.70065	380.54178	1962.48181	104.06945	398.14322	1948.65063	124.53394	406.15228	1908.89478	121.64474	425.23108	1887.24402	127.24447	384.50110	2008.63635	102.57375	405.84180	2011.90320	113.85883	421.58755	2052.46753	102.95078	450.84586	2076.05396	-39.64515	277.49008	1961.65308	42.83731	313.46484	1887.68372	0.20528	332.09164	2074.46021	
2213	9.217	169.00816	389.67996	1994.90942	109.03381	382.50204	1979.87292	58.41087	370.05231	1979.29956	141.76868	378.48969	1963.19055	116.91946	389.85306	1943.38745	140.65173	391.01172	1905.89441	142.15535	404.24503	1879.88452	137.94565	382.41980	2010.71997	114.42862	400.45239	2019.61731	129.52437	408.65143	2060.77295	123.59926	430.76230	2091.45605	-29.73457	276.06052	1966.05981	52.24800	310.15616	1890.01343	10.21431	330.05972	2075.50562	
2214	9.221	178.95453	388.65793	1995.51624	119.06644	381.35880	1980.31055	67.75470	369.76852	1980.72839	151.79758	376.49551	1964.05542	130.59406	381.35162	1939.54675	158.17982	375.52109	1907.15015	164.19989	382.04733	1879.64941	148.64934	380.65939	2012.58459	127.50996	394.45572	2026.22583	147.38416	394.56345	2065.29810	147.23105	407.82986	2100.39307	-19.66543	274.90784	1970.78357	61.11236	307.48544	1892.30640	20.53127	329.95490	2077.24341	
2215	9.225	188.96625	387.73370	1996.16187	128.94740	380.91064	1981.08350	77.21431	369.53415	1982.14197	161.77832	374.81262	1965.10522	144.24037	373.39453	1937.98181	175.90504	361.13745	1912.79102	186.37100	360.58493	1886.68237	159.31871	379.22284	2013.81287	141.30937	388.12177	2031.23425	165.87202	380.15826	2065.42139	171.98268	383.80844	2101.77026	-9.59866	274.33536	1975.26782	69.01076	305.40887	1894.75208	30.97881	331.60083	2079.66992	
2216	9.229	199.05354	386.87164	1996.85022	138.71721	380.98611	1982.13354	86.82681	369.30722	1983.54211	171.80205	373.65741	1966.23206	157.30803	366.20624	1938.63525	192.45816	349.42050	1922.07654	206.89653	341.89740	1900.23706	169.85732	378.09860	2014.24377	155.06618	381.84247	2034.35913	183.42285	366.83359	2061.34204	195.74971	361.08673	2095.64990	0.26688	274.52380	1979.14294	75.79371	303.76364	1897.46924	41.64662	333.98190	2082.42236	
2217	9.233	209.30080	385.99487	1997.58789	148.51634	381.35364	1983.39990	96.62927	369.04578	1984.93030	181.98235	373.09146	1967.25952	169.25978	360.04260	1940.99658	206.97241	341.71945	1933.30371	224.35892	328.27628	1918.27368	180.27448	377.32559	2014.31873	167.92352	376.17221	2035.81750	199.08351	356.43051	2054.27441	216.82317	342.36505	2083.46631	9.77576	275.45755	1982.31763	81.80273	302.30298	1900.41626	52.73700	335.57684	2085.02539	
2218	9.238	219.78717	385.01016	1998.35205	158.56258	381.82242	1984.79065	106.65884	368.70795	1986.30823	192.36281	372.95322	1968.15149	179.67056	355.27933	1944.31519	219.29601	338.79681	1944.06860	238.20255	321.46210	1937.40442	190.67162	376.86740	2014.63782	179.22266	371.67953	2036.32837	212.60062	350.59283	2046.24939	234.52309	330.03625	2068.02979	19.01517	276.87726	1984.84290	87.78593	300.77908	1903.47900	64.27344	335.12659	2087.13403	
2219	9.242	230.55908	383.89087	1999.12158	169.04782	382.21518	1986.19177	116.95262	368.25177	1987.67749	202.92389	372.97311	1969.00720	188.45766	352.34137	1947.48608	229.66130	340.37094	1952.03918	248.86253	321.60910	1953.61023	201.17188	376.52014	2015.44482	188.77586	368.78598	2036.66858	224.11479	349.88434	2039.51599	248.99734	325.13721	2053.11914	28.38434	278.25916	1986.86670	94.59554	299.03418	1906.51257	76.05656	332.18338	2088.54175	
2220	9.246	241.63040	382.69720	1999.92712	180.05551	382.33243	1987.57861	127.54770	367.63525	1989.03967	213.63031	372.92038	1969.93384	195.92099	351.57312	1949.46484	238.43188	345.20508	1955.76746	257.45230	326.93713	1963.66699	211.84196	376.01559	2016.56934	196.75940	367.77188	2037.37634	233.80760	353.36298	2035.76086	260.71500	326.67603	2042.37012	38.41225	279.08176	1988.48633	102.83166	297.08554	1909.34180	87.84304	327.16336	2089.10498	
2221	9.250	253.00110	381.47864	2000.80896	191.56093	381.99551	1989.05396	138.48119	366.81647	1990.39624	224.46370	372.62259	1970.99097	202.57747	353.17648	1950.12122	245.97942	351.70535	1955.24683	265.07043	334.57303	1966.32397	222.73343	375.24210	2017.83142	203.54195	368.71970	2038.44946	242.06477	359.36404	2035.51465	270.06812	332.10736	2037.94763	49.45654	278.91605	1989.83191	112.64182	295.12024	1911.74377	99.40678	321.10214	2088.81494	
2222	9.254	264.62238	380.23276	2001.74963	203.42592	381.12289	1990.72217	149.78662	365.75766	1991.74890	235.43298	372.00043	1972.16699	208.94591	357.03064	1950.37830	252.67244	358.82721	1951.75049	272.05087	341.99850	1962.41357	233.75113	374.35400	2019.27454	209.70708	371.47757	2039.27234	249.55441	366.64267	2038.17249	277.12671	338.81747	2040.10120	61.50382	277.55487	1991.04810	123.72877	293.47748	1913.50134	110.55011	315.24796	2087.90283	
2223	9.258	276.38452	378.93851	2002.69958	215.47186	379.72757	1992.58740	161.44330	364.44379	1993.08301	246.54733	371.09760	1973.39380	215.51289	362.50439	1951.54419	258.84399	366.48410	1947.14661	277.82947	348.30167	1953.92883	244.74571	373.52283	2020.85266	216.06445	375.63776	2038.74255	256.70596	374.68155	2042.43909	281.60666	345.45935	2047.44470	74.27098	275.07352	1992.23315	135.59447	292.57721	1914.44678	121.18053	310.67148	2086.86084	
2224	9.262	288.16049	377.57544	2003.62585	227.55618	377.91068	1994.53625	173.32843	362.89957	1994.37109	257.83459	370.06372	1974.63208	222.71606	368.55276	1954.57922	264.63693	374.87320	1943.32129	281.22989	354.32635	1943.28479	255.61232	372.72308	2022.19580	223.50237	380.39331	2036.00183	263.39780	383.18683	2046.73169	283.11612	352.43097	2057.46973	87.38921	271.93665	1993.20801	147.80963	292.74686	1914.53125	131.40459	307.98584	2086.27637	
2225	9.267	299.83087	376.17685	2004.55261	239.58589	375.80447	1996.40466	185.23389	361.17813	1995.56580	269.28928	369.03558	1975.91895	230.90479	374.06561	1959.64661	270.16858	383.67624	1941.76465	281.37045	361.65750	1933.25500	266.34906	371.82614	2022.86304	232.53987	384.73187	2031.07251	269.43515	391.73547	2049.44824	281.78433	361.10388	2067.26563	100.49182	268.69180	1993.73132	160.17381	294.02298	1913.83325	141.61607	307.17914	2086.60693	
2226	9.271	311.35574	374.79181	2005.53992	251.48299	373.54675	1998.09875	196.94891	359.34790	1996.68713	280.82083	367.99768	1977.34937	240.27548	378.17490	1966.15454	275.83282	392.09756	1943.16003	278.81961	371.43057	1926.71338	277.19827	371.02438	2022.80078	243.11082	387.82874	2025.08020	275.17331	399.64987	2049.47314	278.49411	372.65543	2074.24072	113.22202	265.75467	1993.63965	172.67091	296.15311	1912.59863	152.33449	307.83658	2088.07129	
2227	9.275	322.80051	373.42532	2006.61890	263.19461	371.22104	1999.60364	208.45926	357.40344	1997.78320	292.31223	366.87695	1978.90295	250.97932	380.63742	1973.04211	282.12796	399.38837	1947.14478	275.77295	383.70016	1925.46899	288.35379	370.37747	2022.35535	254.88564	389.39902	2019.45117	281.39063	406.29138	2046.80383	274.58734	387.18210	2076.49780	125.29296	263.37976	1992.88171	185.33199	298.73108	1911.15723	163.91019	309.45407	2090.55737	
2228	9.279	334.21881	372.10660	2007.78894	274.69870	368.87421	2000.93567	219.82724	355.29370	1998.87720	303.66730	365.61746	1980.45105	263.06689	381.84912	1979.13574	289.35751	405.28433	1952.52649	274.69739	397.41827	1929.54797	299.61728	369.57272	2022.11414	267.59280	389.82632	2015.00903	288.52634	411.41760	2042.47131	271.80096	403.34760	2073.09424	136.54878	261.71420	1991.52393	198.11366	301.38345	1909.85596	176.30469	311.62427	2093.66357	
2229	9.283	345.61172	370.84204	2008.93591	286.00665	366.53235	2002.11926	231.21964	352.86603	1999.85645	314.82419	364.15646	1981.90564	276.46481	382.56375	1983.54785	297.58578	409.87067	1958.02600	277.13480	410.91830	1937.73645	310.75949	368.32480	2022.42224	280.86859	389.69064	2012.02625	296.60553	415.30432	2037.76343	271.85178	418.95770	2064.51563	146.94623	260.71753	1989.89990	210.92548	303.73306	1908.94543	189.07216	314.05429	2096.92725	
2230	9.288	356.93478	369.56870	2009.93884	297.14514	364.21982	2003.17310	242.82437	350.01016	2000.60022	325.79291	362.47345	1983.26025	290.61777	383.23627	1986.03503	306.84958	413.19742	1962.65552	283.50375	422.41208	1948.12903	321.80688	366.70621	2023.29675	294.09070	389.30057	2010.73694	305.60883	418.26089	2033.85400	275.86526	432.15207	2052.96973	156.57153	260.25803	1988.41565	223.64973	305.34320	1908.47852	201.71964	316.26205	2099.92920	
2231	9.292	368.13257	368.21075	2010.92261	308.14502	361.96234	2004.11694	254.53255	346.89682	2001.20178	336.62793	360.63617	1984.50806	304.51581	383.72592	1987.04297	317.10513	415.10867	1965.62732	293.39737	430.49692	1958.13281	332.86203	364.89301	2024.61914	306.65750	388.70447	2011.25049	315.52606	420.24341	2031.85828	284.18268	442.07535	2042.02063	165.66772	260.08218	1987.47412	236.13419	305.85364	1908.40320	213.96390	317.49451	2102.32861	
2232	9.296	379.17697	366.69034	2012.08484	319.03708	359.78552	2004.97083	266.02402	343.85687	2001.89600	347.39050	358.77054	1985.61169	317.40363	383.53851	1987.21521	328.07101	415.30066	1966.25659	305.85309	434.69357	1964.72449	343.93015	362.99835	2026.32080	318.33453	387.92148	2013.70789	326.17068	420.82907	2032.75012	296.25555	448.70462	2035.55481	174.60568	259.89120	1987.32410	248.18344	305.27783	1908.67554	225.62613	317.14294	2103.97925	
